<?xml version="1.0" encoding="utf-8"?>
<!-- Generator: Adobe Illustrator 16.0.0, SVG Export Plug-In . SVG Version: 6.00 Build 0)  -->
<!DOCTYPE svg PUBLIC "-//W3C//DTD SVG 1.1//EN" "http://www.w3.org/Graphics/SVG/1.1/DTD/svg11.dtd">
<svg version="1.1" id="Слой_1" xmlns="http://www.w3.org/2000/svg" xmlns:xlink="http://www.w3.org/1999/xlink" x="0px" y="0px"
	 width="120px" height="99.016px" viewBox="148.199 131.755 120 99.016" enable-background="new 148.199 131.755 120 99.016"
	 xml:space="preserve">
<g id="Шар_1">
	<g>
		<g>
			<rect x="159.139" y="197.896" fill="#E8631B" width="3.275" height="20.674"/>
			<path fill="#E8631B" d="M168.943,218.849c-2.366,0-4.292-1.924-4.292-4.287V201.95c0-2.363,1.926-4.289,4.292-4.289
				c2.289,0,4.165,1.803,4.283,4.063h0.006l0.014,0.227v1.688h-3.275v-1.459l-0.014-0.229c0-0.584-0.48-1.115-1.008-1.115
				c-0.534,0-1.021,0.531-1.021,1.115v12.611c0,0.584,0.483,1.115,1.015,1.115c0.531,0,1.014-0.531,1.014-1.115v-0.229h0.014v-1.459
				h3.274v1.914h-0.019C173.107,217.048,171.231,218.849,168.943,218.849z"/>
			<polygon fill="#E8631B" points="264.924,218.569 264.924,210.872 262.314,206.837 262.314,218.569 259.039,218.569 
				259.039,197.454 259.588,197.454 264.924,205.349 264.924,197.896 268.199,197.896 268.199,218.569 			"/>
			<path fill="#E8631B" d="M153.61,218.569l-1.419-3.295h-0.717v3.295h-3.274v-20.672l4.145-0.002c2.35,0,4.273,1.912,4.288,4.262
				l0.001,8.828c0,1.273-0.556,2.457-1.531,3.277l1.824,4.307H153.61z M152.344,212.103c0.53,0,1.014-0.531,1.014-1.117v-8.801
				c0-0.586-0.483-1.117-1.014-1.117h-0.871v11.035H152.344L152.344,212.103z"/>
			<path fill="#E8631B" d="M181.207,218.569l-1.419-3.295h-0.716v3.295h-3.276v-20.672h3.276v14.205h0.87
				c0.53,0,1.013-0.531,1.013-1.117v-13.09h3.276v13.09c0,1.273-0.556,2.457-1.53,3.277l1.823,4.307H181.207L181.207,218.569z"/>
			<polygon fill="#E8631B" points="213.373,218.569 213.373,197.896 216.649,197.896 216.649,215.403 221.44,215.403 
				221.44,218.569 			"/>
			<polygon fill="#E8631B" points="186.94,218.569 186.94,197.896 194.278,197.896 194.278,201.067 190.217,201.067 
				190.217,209.677 194.278,209.677 194.278,212.849 190.217,212.849 190.217,215.403 194.652,215.403 194.652,218.569 			"/>
			<polygon fill="#E8631B" points="241.902,218.569 241.902,205.786 239.186,209.247 236.491,205.813 236.491,218.569 
				233.215,218.569 233.216,197.47 233.802,197.47 239.187,204.222 244.587,197.47 245.174,197.47 245.178,218.569 			"/>
			<polygon fill="#E8631B" points="224.417,218.569 224.417,207.374 220.482,197.896 223.871,197.896 226.055,203.323 
				228.238,197.896 231.632,197.896 227.693,207.374 227.693,218.569 			"/>
			<path fill="#E8631B" d="M202.269,218.569l-1.418-3.295h-0.717v3.295h-3.276v-20.672l4.146-0.002c2.35,0,4.274,1.912,4.288,4.262
				l0,8.828c0,1.273-0.555,2.457-1.53,3.277l1.824,4.307H202.269z M201.004,212.103c0.531,0,1.014-0.531,1.014-1.117v-8.801
				c0-0.586-0.483-1.117-1.014-1.117h-0.87v11.035H201.004L201.004,212.103z"/>
			<path fill="#E8631B" d="M253.471,218.569v-3.295h-2.028v3.295h-3.275V201.95c0-2.363,1.924-4.287,4.289-4.287
				c2.366,0,4.291,1.924,4.291,4.287v16.619H253.471z M253.471,212.103V201.95c0-0.584-0.483-1.115-1.015-1.115
				c-0.53,0-1.014,0.531-1.014,1.115v10.152H253.471z"/>
		</g>
	</g>
	<g>
		<path fill="#626C70" d="M184.984,230.661v-6.428h2.238c0.57,0,0.987,0.051,1.25,0.152c0.372,0.145,0.663,0.377,0.873,0.697
			c0.209,0.32,0.315,0.711,0.315,1.174c0,0.359-0.084,0.703-0.251,1.029c-0.169,0.326-0.405,0.568-0.711,0.723v0.02
			c0.06,0.076,0.141,0.205,0.244,0.387l1.249,2.246h-1.753l-1.143-2.166h-0.737v2.166H184.984L184.984,230.661z M186.557,227.146
			h0.684c0.257,0,0.458-0.068,0.602-0.207c0.145-0.137,0.216-0.332,0.216-0.584c0-0.354-0.125-0.58-0.378-0.684
			c-0.138-0.059-0.335-0.09-0.592-0.09h-0.531V227.146L186.557,227.146z"/>
		<path fill="#626C70" d="M191.467,227.407c0-0.936,0.315-1.715,0.944-2.344c0.628-0.625,1.436-0.939,2.418-0.939
			c0.982,0,1.789,0.314,2.418,0.939c0.63,0.627,0.944,1.408,0.944,2.344c0,0.959-0.314,1.758-0.944,2.4
			c-0.629,0.641-1.436,0.963-2.418,0.963c-0.983,0-1.79-0.32-2.418-0.963C191.781,229.165,191.467,228.366,191.467,227.407z
			 M193.094,227.407c0,0.551,0.162,1.01,0.489,1.375c0.327,0.367,0.742,0.549,1.246,0.549c0.503,0,0.918-0.184,1.245-0.549
			s0.49-0.824,0.49-1.375c0-0.527-0.164-0.967-0.49-1.318c-0.327-0.35-0.742-0.525-1.245-0.525c-0.504,0-0.919,0.176-1.246,0.525
			C193.257,226.44,193.094,226.88,193.094,227.407z"/>
		<path fill="#626C70" d="M200.179,230.661v-6.428h2.364c0.661,0,1.188,0.145,1.587,0.436s0.598,0.705,0.598,1.246
			c0,0.275-0.066,0.537-0.198,0.785c-0.131,0.25-0.315,0.443-0.547,0.582v0.018c0.341,0.102,0.594,0.289,0.758,0.561
			c0.166,0.273,0.249,0.568,0.249,0.887c0,0.652-0.231,1.135-0.693,1.447c-0.461,0.313-1.045,0.467-1.753,0.467H200.179
			L200.179,230.661z M201.752,226.724h0.809c0.187,0,0.327-0.057,0.423-0.172c0.097-0.113,0.145-0.254,0.145-0.422
			c0-0.162-0.05-0.293-0.149-0.395c-0.099-0.104-0.247-0.154-0.444-0.154h-0.783L201.752,226.724L201.752,226.724z M201.752,229.313
			h0.944c0.217,0,0.384-0.064,0.504-0.193s0.18-0.289,0.18-0.48c0-0.193-0.057-0.35-0.171-0.473
			c-0.113-0.123-0.282-0.186-0.504-0.186h-0.952L201.752,229.313L201.752,229.313z"/>
		<path fill="#626C70" d="M206.635,227.407c0-0.936,0.314-1.715,0.944-2.344c0.63-0.625,1.438-0.939,2.42-0.939
			s1.789,0.314,2.418,0.939c0.63,0.627,0.944,1.408,0.944,2.344c0,0.959-0.314,1.758-0.944,2.4
			c-0.629,0.641-1.436,0.963-2.418,0.963s-1.79-0.32-2.42-0.963S206.635,228.366,206.635,227.407z M208.262,227.407
			c0,0.551,0.164,1.01,0.49,1.375c0.326,0.367,0.742,0.549,1.246,0.549c0.503,0,0.918-0.184,1.245-0.549
			c0.326-0.365,0.49-0.824,0.49-1.375c0-0.527-0.164-0.967-0.49-1.318c-0.327-0.35-0.742-0.525-1.245-0.525
			c-0.504,0-0.92,0.176-1.246,0.525C208.426,226.44,208.262,226.88,208.262,227.407z"/>
		<path fill="#626C70" d="M216.587,230.661v-5.08h-1.95v-1.348h5.477v1.348h-1.951v5.08H216.587L216.587,230.661z"/>
		<path fill="#626C70" d="M221.884,230.661v-6.428h1.573v6.428H221.884z"/>
		<path fill="#626C70" d="M225.454,227.435c0-0.947,0.315-1.736,0.947-2.365c0.633-0.629,1.44-0.945,2.424-0.945
			c0.45,0,0.888,0.078,1.313,0.23c0.425,0.152,0.79,0.379,1.097,0.678l-0.729,1.188c-0.216-0.191-0.47-0.35-0.76-0.473
			c-0.291-0.121-0.574-0.184-0.85-0.184c-0.6,0-1.052,0.178-1.357,0.535c-0.306,0.355-0.459,0.789-0.459,1.299
			c0,0.521,0.157,0.975,0.472,1.357s0.763,0.576,1.345,0.576c0.61,0,1.18-0.266,1.708-0.791l0.809,1.15
			c-0.695,0.719-1.558,1.078-2.589,1.078c-1.019,0-1.836-0.313-2.449-0.939C225.761,229.204,225.454,228.405,225.454,227.435z"/>
	</g>
	<circle fill="#A6D0E9" cx="208.223" cy="160.309" r="28.554"/>
	<ellipse fill="#E8631B" cx="217.133" cy="148.762" rx="1.673" ry="2.562"/>
	<path fill="#B2421B" d="M217.76,146.388c0.313,0.465,0.508,1.115,0.508,1.834c0,1.415-0.75,2.563-1.674,2.563
		c-0.221,0-0.434-0.068-0.626-0.188c0.301,0.449,0.712,0.727,1.166,0.727c0.923,0,1.672-1.147,1.672-2.562
		C218.806,147.687,218.373,146.768,217.76,146.388z"/>
	<path fill="#B2421B" d="M232.22,171.748l-4.894-7.08l-2.566,1.827l4.813,7.066C230.436,173.032,231.392,172.466,232.22,171.748z"/>
	<path fill="#FFFFFF" d="M229.573,173.561l-4.813-7.066l-0.404,0.288l4.843,7.008C229.321,173.716,229.447,173.639,229.573,173.561z
		"/>
	<path fill="#E8631B" d="M235.112,182.557c0.001-2.305,0.005-7.604,0.009-7.748c0.046-1.974-1.518-3.612-3.494-3.66
		c-1.975-0.045-3.612,1.519-3.659,3.494c-0.003,0.143,0.863,5.822,1.244,8.315L235.112,182.557z"/>
	<path fill="#B2421B" d="M235.12,174.809c0.046-1.974-1.518-3.612-3.494-3.66c-0.176-0.004-0.352,0.009-0.521,0.03l0.661,10.347
		l3.345,1.03C235.113,180.251,235.116,174.952,235.12,174.809z"/>
	<path fill="#E8631B" d="M228.325,162.325c-1.7-3.481-4.461-5.2-7.178-4.569c-1.097,0.255-1.955,0.733-2.61,1.274
		c2.048,3.562,4.803,6.642,5.945,10.635c0.697-0.14,1.322-0.318,1.719-0.556c1.918-1.15,2.922-2.607,3.097-3.687
		C229.387,164.874,228.698,163.089,228.325,162.325z"/>
	<path fill="#FFFFFF" d="M221.148,157.755c-0.698,0.162-1.292,0.417-1.806,0.718l0.439,0.419c0.556-0.356,1.214-0.662,2.007-0.846
		c0.983-0.228,1.973-0.147,2.915,0.213C223.575,157.661,222.357,157.475,221.148,157.755z"/>
	<path fill="#B2421B" d="M228.325,162.325c-0.452-0.926-1.288-2.026-1.943-2.763c0.069,0.117,0.136,0.237,0.199,0.361
		c0.173,0.333,0.212,0.668,0.238,0.94c0.182,1.944-1.063,3.732-2.974,4.586c0.305,1.333,0.714,2.79,0.904,4.157
		c0.586-0.13,1.106-0.291,1.451-0.498c1.918-1.15,2.922-2.607,3.097-3.687C229.387,164.874,228.698,163.089,228.325,162.325z"/>
	<path fill="#FFFFFF" d="M229.649,182.287c-0.381-2.491-1.247-8.17-1.245-8.314c0.014-0.549,0.153-1.064,0.386-1.524
		c-0.495,0.599-0.803,1.358-0.822,2.195c-0.002,0.143,0.863,5.822,1.244,8.315L229.649,182.287z"/>
	<path fill="#B2421B" d="M235.115,182.623c0.171,1.079-1.015,2.11-2.647,2.304c-1.634,0.193-3.098-0.523-3.268-1.605
		c-0.172-1.077,1.015-2.108,2.648-2.301C233.482,180.827,234.946,181.545,235.115,182.623z"/>
	<path fill="#3C3C3B" d="M234.008,182.925c0.047,0.285-0.454,1.678-0.68,1.916c-0.303,0.318-0.426-0.553-1.032-0.484
		c-1.057,0.121-2.004-0.328-2.114-0.998c-0.111-0.671,0.656-1.312,1.712-1.433C232.951,181.807,233.898,182.254,234.008,182.925z"/>
	<g>
		<polygon fill="#B2421B" points="232.677,189.405 226.692,191.694 227.204,193.548 232.494,192.218 233.831,188.489 
			234.455,184.151 		"/>
		<polygon fill="#3C3C3B" points="229.854,184.142 228.483,186.378 231.467,187.731 232.446,185.032 		"/>
		
			<linearGradient id="SVGID_1_" gradientUnits="userSpaceOnUse" x1="-45.3611" y1="277.7559" x2="-45.0759" y2="277.7559" gradientTransform="matrix(8.9964 -33.3311 33.3311 8.9964 -8620.8457 -3818.4395)">
			<stop  offset="0" style="stop-color:#F09B7A"/>
			<stop  offset="0.0466" style="stop-color:#F09B7A"/>
			<stop  offset="0.166" style="stop-color:#EE8C60"/>
			<stop  offset="0.3375" style="stop-color:#EB7941"/>
			<stop  offset="0.4976" style="stop-color:#E96B2B"/>
			<stop  offset="0.6403" style="stop-color:#E8631E"/>
			<stop  offset="0.7513" style="stop-color:#E86019"/>
			<stop  offset="1" style="stop-color:#E86019"/>
		</linearGradient>
		<polygon fill="url(#SVGID_1_)" points="229.19,182.164 234.496,184.026 232.677,189.405 226.692,191.694 226.687,190.909 
			231.206,188.45 232.446,185.032 229.854,184.142 228.436,187.173 227.358,185.968 		"/>
		
			<linearGradient id="SVGID_2_" gradientUnits="userSpaceOnUse" x1="-140.9314" y1="213.1758" x2="-140.6462" y2="213.1758" gradientTransform="matrix(2.4941 -9.2406 9.2406 2.4941 -1391.0747 -1645.1924)">
			<stop  offset="0" style="stop-color:#E8611B"/>
			<stop  offset="0.4585" style="stop-color:#CC541A"/>
			<stop  offset="1" style="stop-color:#B14818"/>
		</linearGradient>
		<polygon fill="url(#SVGID_2_)" points="227.358,185.968 228.436,187.173 227.912,188.946 227.147,188.292 		"/>
	</g>
	
		<linearGradient id="SVGID_3_" gradientUnits="userSpaceOnUse" x1="-18.4241" y1="308.2129" x2="-18.1414" y2="308.2129" gradientTransform="matrix(58.6401 0 0 58.6401 1281.1321 -17927.1289)">
		<stop  offset="0" style="stop-color:#FFFFFF"/>
		<stop  offset="0.2364" style="stop-color:#F09B7A"/>
		<stop  offset="0.3697" style="stop-color:#ED814C"/>
		<stop  offset="0.49" style="stop-color:#E96B29"/>
		<stop  offset="0.5515" style="stop-color:#E8631C"/>
		<stop  offset="0.6774" style="stop-color:#DD5E1B"/>
		<stop  offset="0.8902" style="stop-color:#C15019"/>
		<stop  offset="1" style="stop-color:#B14818"/>
	</linearGradient>
	<path fill="url(#SVGID_3_)" d="M217.269,144.451c-0.499-4.099-3.989-7.275-8.224-7.275c-4.235,0-7.725,3.176-8.224,7.275
		l-0.064,11.368h16.576L217.269,144.451z"/>
	<path fill="#B2421B" d="M215.638,143.286l0.046,12.533h1.628l-0.043-11.368c-0.33-2.711-1.97-5.018-4.268-6.27
		C214.424,139.482,215.393,141.271,215.638,143.286z"/>
	<path fill="#FFFFFF" d="M201.79,155.818l0.041-11.523c0.429-3.514,3.055-6.347,6.463-7.085c-3.89,0.349-7.003,3.386-7.473,7.24
		l-0.041,11.368L201.79,155.818L201.79,155.818z"/>
	<path fill="#3C3C3B" d="M208.412,156.306c-8.561,0-15.5,6.939-15.5,15.5c0,1.317,0.458,7.784,0.866,13.28
		c4.233,2.482,9.16,3.906,14.421,3.906c5.446,0,10.537-1.525,14.867-4.172c0.403-5.438,0.847-11.719,0.847-13.015
		C223.914,163.247,216.974,156.306,208.412,156.306z"/>
	
		<linearGradient id="SVGID_4_" gradientUnits="userSpaceOnUse" x1="481.011" y1="-221.4287" x2="515.135" y2="-221.4287" gradientTransform="matrix(1 0 0 -1 -289.6602 -49.71)">
		<stop  offset="0" style="stop-color:#FFFFFF"/>
		<stop  offset="0.0989" style="stop-color:#FDEEE9"/>
		<stop  offset="0.1636" style="stop-color:#FCE8E0"/>
		<stop  offset="0.3515" style="stop-color:#F09B7A"/>
		<stop  offset="0.3823" style="stop-color:#EE8D62"/>
		<stop  offset="0.4281" style="stop-color:#EC7A43"/>
		<stop  offset="0.471" style="stop-color:#EA6C2D"/>
		<stop  offset="0.5094" style="stop-color:#E86420"/>
		<stop  offset="0.5394" style="stop-color:#E8611B"/>
		<stop  offset="0.6424" style="stop-color:#E35F17"/>
		<stop  offset="1" style="stop-color:#B94C18"/>
	</linearGradient>
	<path fill="url(#SVGID_4_)" d="M208.412,154.445c-9.422,0-17.062,7.638-17.062,17.062c0,0.191,0.009,0.482,0.025,0.855
		c6.484,2.852,11.215,8.954,12.126,16.245c1.528,0.254,3.097,0.387,4.696,0.387c6.146,0,11.839-1.941,16.497-5.244
		c0.396-5.415,0.778-10.98,0.778-12.243C225.474,162.083,217.835,154.445,208.412,154.445z"/>
	<path fill="#FFFFFF" d="M201.294,142.588c-0.004,0.01-0.007,0.021-0.012,0.03v-0.001
		C201.282,142.607,201.292,142.598,201.294,142.588z"/>
	
		<linearGradient id="SVGID_5_" gradientUnits="userSpaceOnUse" x1="-168.3679" y1="-204.269" x2="-134.168" y2="-204.269" gradientTransform="matrix(1 0 0 -1 359.6602 -49.71)">
		<stop  offset="0" style="stop-color:#FFFFFF"/>
		<stop  offset="0.0953" style="stop-color:#FDEEE9"/>
		<stop  offset="0.1576" style="stop-color:#FCE8E0"/>
		<stop  offset="0.3152" style="stop-color:#F09B7A"/>
		<stop  offset="0.3439" style="stop-color:#EE8D62"/>
		<stop  offset="0.3868" style="stop-color:#EC7A43"/>
		<stop  offset="0.427" style="stop-color:#EA6C2D"/>
		<stop  offset="0.4628" style="stop-color:#E86420"/>
		<stop  offset="0.4909" style="stop-color:#E8611B"/>
		<stop  offset="0.6061" style="stop-color:#E35F17"/>
		<stop  offset="1" style="stop-color:#B94C18"/>
	</linearGradient>
	<path fill="url(#SVGID_5_)" d="M208.392,154.558c-0.008,0-0.016,0-0.022,0c0.029,0,0.058,0.001,0.086,0.001
		C208.434,154.56,208.414,154.558,208.392,154.558z"/>
	<path fill="#B2421B" d="M208.412,154.445c-5.607,0-10.582,2.705-13.692,6.88c2.987-2.567,6.868-4.123,11.114-4.123
		c4.018,0,7.708,1.392,10.623,3.714c4.241,3.104,6.997,8.116,6.997,13.774c0,1.11-0.297,5.544-0.636,10.277
		c0.642-0.383,1.269-0.789,1.877-1.221c0.396-5.413,0.778-10.979,0.778-12.241C225.474,162.083,217.835,154.445,208.412,154.445z"/>
	<circle fill="#3C3C3B" cx="206.268" cy="146.227" r="2.435"/>
	<circle fill="#FFFFFF" cx="206.268" cy="145.662" r="2.435"/>
	<circle fill="#B2421B" cx="206.267" cy="145.662" r="1.742"/>
	<circle fill="#3C3C3B" cx="213.956" cy="146.227" r="2.434"/>
	<circle fill="#FFFFFF" cx="213.956" cy="145.662" r="2.434"/>
	<circle fill="#B2421B" cx="213.955" cy="145.662" r="1.742"/>
	<circle fill="#E86019" cx="213.544" cy="145.25" r="1.16"/>
	<path fill="#FFFFFF" d="M212.94,143.964c-0.191-0.191-0.501-0.191-0.691,0c-0.192,0.191-0.191,0.501,0,0.691
		c0.089,0.09,0.376,0.377,0.467,0.467c0.191,0.191,0.501,0.191,0.692,0c0.19-0.191,0.19-0.5,0-0.692
		C213.317,144.341,213.03,144.054,212.94,143.964z"/>
	<circle fill="#E86019" cx="205.852" cy="145.25" r="1.159"/>
	<path fill="#FFFFFF" d="M205.248,143.964c-0.191-0.191-0.501-0.191-0.692,0s-0.191,0.501,0,0.691
		c0.091,0.09,0.377,0.377,0.467,0.467c0.191,0.191,0.501,0.191,0.692,0c0.191-0.191,0.191-0.5,0-0.692
		C205.624,144.341,205.337,144.054,205.248,143.964z"/>
	<path fill="#FFFFFF" d="M189.154,161.226c1.742-3.563,4.887-5.678,7.354-5.098l-0.245-0.123l-0.013,0.024
		c-2.522-0.967-5.948,1.184-7.794,4.963c-0.426,0.872-0.732,1.756-0.922,2.618l0.819-0.235
		C188.542,162.663,188.805,161.94,189.154,161.226z"/>
	<g>
		<path fill="#3C3C3B" d="M219.714,182.289c-4.938-10.058-13.843-17.808-24.671-21.228c-0.534,0.47-0.827,0.774-0.785,0.787
			c10.705,3.319,19.572,10.872,24.6,20.734c0.504-0.033,0.849-0.143,0.814-0.107c-0.003,0.004,0.023-0.084,0.071-0.242
			C219.733,182.25,219.724,182.27,219.714,182.289z"/>
		
			<linearGradient id="SVGID_6_" gradientUnits="userSpaceOnUse" x1="486.3323" y1="-221.3662" x2="514.4298" y2="-215.9046" gradientTransform="matrix(1 0 0 -1 -289.6602 -49.71)">
			<stop  offset="0" style="stop-color:#FFFFFF"/>
			<stop  offset="0.4788" style="stop-color:#F09B7A"/>
			<stop  offset="0.5603" style="stop-color:#EE8859"/>
			<stop  offset="0.6604" style="stop-color:#EB7337"/>
			<stop  offset="0.7398" style="stop-color:#E96623"/>
			<stop  offset="0.7879" style="stop-color:#E8611B"/>
			<stop  offset="0.8414" style="stop-color:#E15E1B"/>
			<stop  offset="0.9138" style="stop-color:#CF551A"/>
			<stop  offset="0.9966" style="stop-color:#B24918"/>
			<stop  offset="1" style="stop-color:#B14818"/>
		</linearGradient>
		<path fill="url(#SVGID_6_)" d="M223.874,171.133h-0.02c0.019-1.34-0.122-2.675-0.409-3.978c-0.375-1.708-1.007-3.359-1.883-4.893
			c-1.285-2.25-3.09-4.248-5.384-5.786l-1.619-0.73l-1.655-0.397h-1.567h-6.826h-1.694c-3.184,1.082-5.954,3.059-8.004,5.638
			c0.077,0.024,0.153,0.05,0.23,0.074c10.828,3.42,19.733,11.17,24.671,21.228c0.01-0.02,0.019-0.039,0.029-0.057
			c1.928-3.522,3.306-7.265,4.132-11.103C223.875,171.131,223.874,171.132,223.874,171.133z"/>
	</g>
	
		<linearGradient id="SVGID_7_" gradientUnits="userSpaceOnUse" x1="-181.8328" y1="-197.1265" x2="-178.4368" y2="-200.0786" gradientTransform="matrix(1 0 0 -1 381.0059 -49.71)">
		<stop  offset="0" style="stop-color:#FFFFFF"/>
		<stop  offset="0.5818" style="stop-color:#F09B7A"/>
		<stop  offset="1" style="stop-color:#E8611B"/>
	</linearGradient>
	<path fill="url(#SVGID_7_)" d="M202.092,148.762c0-1.133-0.409-2.106-0.995-2.545c-0.065-0.01-0.13-0.017-0.196-0.017
		c-0.01,0-0.02,0.003-0.03,0.003c-0.01,0-0.019-0.003-0.028-0.003c-0.973,0-1.762,1.147-1.762,2.562
		c0,1.415,0.789,2.562,1.762,2.562c0.01,0,0.019-0.003,0.03-0.003c0.01,0,0.018,0.003,0.028,0.003c0.066,0,0.131-0.006,0.196-0.017
		C201.683,150.868,202.092,149.895,202.092,148.762z"/>
	<path fill="#E86019" d="M201.188,146.299c0.258,0.594,0.394,1.42,0.34,2.326c-0.067,1.159-0.424,2.151-0.9,2.679
		c0.071,0.012,0.142,0.021,0.214,0.021c0.01,0,0.019-0.003,0.03-0.003c0.01,0,0.018,0.003,0.028,0.003
		c0.066,0,0.131-0.006,0.196-0.017c0.586-0.439,0.995-1.412,0.995-2.544C202.092,147.691,201.723,146.768,201.188,146.299z"/>
	<path fill="#FFFFFF" d="M199.642,148.84c0-1.415,0.499-2.562,1.472-2.562c0.01,0,0.02,0.003,0.029,0.003
		c0.007,0,0.014-0.001,0.022-0.002c-0.023-0.02-0.044-0.043-0.068-0.062c-0.065-0.01-0.13-0.017-0.196-0.017
		c-0.01,0-0.02,0.003-0.03,0.003s-0.018-0.003-0.028-0.003c-0.973,0-1.761,1.147-1.761,2.562c0,1.318,0.685,2.402,1.565,2.545
		C199.901,151.008,199.642,150.019,199.642,148.84z"/>
	<g>
		<path fill="#3C3C3B" d="M216.006,165.806c0.156,0.003,0.272-0.065,0.348-0.208c0.075-0.141,0.09-0.308,0.044-0.5l-0.957-3.716
			c-0.054-0.193-0.159-0.364-0.32-0.509c-0.161-0.146-0.331-0.227-0.509-0.241l-0.64-0.05l0.088,0.308l0.081,0.006
			c0.178,0.015,0.348,0.096,0.512,0.241c0.161,0.145,0.269,0.313,0.323,0.505l0.991,3.681c0.047,0.185,0.035,0.346-0.034,0.482
			L216.006,165.806z"/>
		<polygon fill="#3C3C3B" points="215.029,168.391 212.911,161.205 212.25,159.239 211.774,159.511 212.455,161.458 
			214.682,168.708 215.825,168.635 216.085,168.376 		"/>
		<polygon fill="#3C3C3B" points="219.16,168.307 217.362,159.739 216.872,160.022 218.759,168.585 221.505,168.475 
			221.858,168.214 		"/>
		<path fill="#3C3C3B" d="M217.085,168.359l-0.637-1.292c-0.042,0.006-0.085,0.009-0.127,0.009l-0.553-0.001l0.05,0.205l0.093,0.001
			c0.043,0,0.086-0.002,0.127-0.009l0.671,1.336l1.223-0.045l0.275-0.23L217.085,168.359z"/>
		<g>
			<g>
				<path id="SVGID_8_" fill="#FFFFFF" d="M214.314,159.413c0.533,0.069,1.035,0.304,1.503,0.707
					c0.458,0.399,0.75,0.854,0.879,1.364l0.854,3.649c0.118,0.55,0.043,1.016-0.221,1.402l0.879,1.797l-1.122,0.026l-0.637-1.292
					c-0.042,0.006-0.085,0.009-0.127,0.009l-0.553-0.001l0.316,1.302l-1.057,0.014l-2.117-7.186l-0.661-1.966l1.995,0.167
					L214.314,159.413z M213.972,160.581l1.471,5.214l0.563,0.011c0.156,0.003,0.271-0.065,0.347-0.208
					c0.075-0.141,0.09-0.308,0.044-0.5l-0.956-3.716c-0.054-0.193-0.16-0.364-0.321-0.509c-0.16-0.146-0.331-0.227-0.508-0.241
					L213.972,160.581z M217.362,159.739l1.282,0.163l1.398,7.168l1.657-0.011l0.158,1.156l-2.697,0.093L217.362,159.739z"/>
			</g>
		</g>
	</g>
	<path fill="#3C3C3B" d="M204.709,151.545c-0.123,0.263-0.198,0.553-0.198,0.863c0,1.125,0.912,2.037,2.037,2.037
		c0.791,0,6.309,0,7.098,0c1.125,0,2.038-0.912,2.038-2.037c0-0.309-0.074-0.599-0.198-0.86L204.709,151.545z"/>
	<path fill="#FFFFFF" d="M213.753,150.381l-7.295,0c-0.774,0.036-1.433,0.5-1.745,1.165l10.777,0.002
		C215.179,150.884,214.524,150.421,213.753,150.381z"/>
	
		<linearGradient id="SVGID_9_" gradientUnits="userSpaceOnUse" x1="-263.6243" y1="-463.8047" x2="-227.6167" y2="-470.9839" gradientTransform="matrix(0.9978 0.0662 0.0662 -0.9978 484.8659 -293.8475)">
		<stop  offset="0" style="stop-color:#FFFFFF"/>
		<stop  offset="0.2725" style="stop-color:#FFFFFF"/>
		<stop  offset="0.3581" style="stop-color:#F09B7A"/>
		<stop  offset="0.3809" style="stop-color:#EE8D62"/>
		<stop  offset="0.4148" style="stop-color:#EC7A43"/>
		<stop  offset="0.4466" style="stop-color:#EA6C2D"/>
		<stop  offset="0.475" style="stop-color:#E86420"/>
		<stop  offset="0.4972" style="stop-color:#E8611B"/>
		<stop  offset="0.6024" style="stop-color:#CF561A"/>
		<stop  offset="0.7169" style="stop-color:#BE4E19"/>
		<stop  offset="0.8426" style="stop-color:#B44918"/>
		<stop  offset="1" style="stop-color:#B14818"/>
	</linearGradient>
	<path fill="url(#SVGID_9_)" d="M218.821,155.824c-2.207-1.081-4.679-1.824-7.324-2.128c-4.244-0.49-8.303,0.218-11.734,1.817
		l-0.121,1.812c3.502-1.291,7.469-1.808,11.589-1.333c2.661,0.308,5.163,1.005,7.443,2.011L218.821,155.824z"/>
	<path fill="#FFFFFF" d="M200.74,155.095c-0.331,0.131-0.658,0.269-0.977,0.417l-0.08,1.209c-5.075,2.955-8.488,8.448-8.488,14.745
		c0,0.191,0.009,0.483,0.025,0.855c0,0,2.311,1.039,2.911,1.514v-9.045c0,0,0.148-0.146,0.242-0.239
		c1.275-3.056,3.415-5.66,6.114-7.509c0.085-0.026,0.167-0.057,0.252-0.083L200.74,155.095L200.74,155.095z"/>
	<path fill="#B2421B" d="M215.01,154.389v2.331c1.273,0.342,2.5,0.769,3.665,1.283l0.146-2.179
		C217.624,155.238,216.347,154.76,215.01,154.389z"/>
	<g>
		<path fill="#B2421B" d="M200.846,159.937c-0.225-0.677-0.595-1.271-1.118-1.743c-0.177-0.16-0.984-0.888-1.129-1.019l-0.013-0.006
			c0.053,0.07,0.264,0.351,0.262,0.35c1.295,2.311,0.254,6.044-2.425,9.018c-0.004,0.005-0.006,0.009-0.011,0.014l-0.381,0.425
			c-0.614-0.757-1.474-1.542-2.509-2.241c-2.571-1.737-5.231-2.292-5.958-1.245c-0.002,0.003-0.006,0.006-0.008,0.009
			c-0.157,0.233-0.202,0.526-0.156,0.858c0.16,1.177,1.516,2.857,3.529,4.216c0.515,0.349,5.202,0.875,5.202,0.875l1.043-0.003
			l1.157-1.284l-0.001-0.002C200.698,165.498,201.614,162.237,200.846,159.937z"/>
		<path fill="#3C3C3B" d="M196.131,169.449c0,0-0.079-0.511-0.231-0.978c-0.251-0.933-1.297-2.168-2.8-3.185
			c-2.083-1.406-4.24-1.852-4.819-0.994c-0.579,0.857,0.639,2.693,2.722,4.1c0.079,0.053-0.072,1.032,0.007,1.082L196.131,169.449z"
			/>
		<g>
			<path fill="#B2421B" d="M192.803,167.411c-0.053-0.336-0.188-0.666-0.375-0.969c-1.055,1.232-4.259,4.975-5.898,6.89
				c0.347,0.367,0.679,0.737,1.005,1.066c1.689-1.974,3.862-4.512,4.684-5.472c0.102-0.119,0.183-0.213,0.239-0.279
				c0.057-0.067,0.09-0.104,0.095-0.11c0.048-0.054,0.093-0.11,0.134-0.167c0.009-0.011,0.018-0.024,0.025-0.036
				C192.82,168.07,192.859,167.759,192.803,167.411z"/>
			<path fill="#E8631B" d="M190.494,165.041c-0.026-0.005-0.051-0.012-0.077-0.015c-0.277-0.045-0.53-0.028-0.755,0.033
				c-0.044,0.026-0.087,0.056-0.129,0.085c-0.016,0.012-0.033,0.022-0.049,0.034c-0.045,0.034-0.089,0.072-0.133,0.109
				c-0.017,0.014-0.034,0.026-0.05,0.041c-0.058,0.054-0.115,0.11-0.168,0.171c-0.002,0.002-0.003,0.005-0.006,0.008l-0.011-0.009
				c-0.889,0.971-3.628,4.209-5.12,5.981c0.97,0.292,1.786,1.063,2.533,1.853c1.64-1.915,4.844-5.658,5.899-6.89
				C191.996,165.745,191.266,165.192,190.494,165.041z"/>
			<path fill="#FFFFFF" d="M189.662,165.059c-0.044,0.026-0.087,0.056-0.129,0.085c-0.016,0.012-0.033,0.022-0.049,0.034
				c-0.045,0.034-0.089,0.072-0.133,0.109c-0.017,0.014-0.034,0.026-0.05,0.041c-0.058,0.054-0.115,0.11-0.168,0.171
				c-0.002,0.002-0.003,0.005-0.006,0.008l-0.011-0.009c-0.889,0.971-3.628,4.209-5.12,5.981c0.22,0.066,0.433,0.155,0.638,0.267
				l5.683-6.731C190.079,164.988,189.859,165.005,189.662,165.059z"/>
		</g>
		
			<linearGradient id="SVGID_10_" gradientUnits="userSpaceOnUse" x1="479.7708" y1="-208.04" x2="488.0249" y2="-213.6075" gradientTransform="matrix(1 0 0 -1 -289.6602 -49.71)">
			<stop  offset="0" style="stop-color:#FFFFFF"/>
			<stop  offset="0.3636" style="stop-color:#F09B7A"/>
			<stop  offset="0.4202" style="stop-color:#EE8D62"/>
			<stop  offset="0.5045" style="stop-color:#EC7A43"/>
			<stop  offset="0.5834" style="stop-color:#EA6C2D"/>
			<stop  offset="0.6539" style="stop-color:#E86420"/>
			<stop  offset="0.7091" style="stop-color:#E8611B"/>
			<stop  offset="0.7924" style="stop-color:#DC5C1A"/>
			<stop  offset="0.9355" style="stop-color:#BF4E19"/>
			<stop  offset="1" style="stop-color:#B14818"/>
		</linearGradient>
		<path fill="url(#SVGID_10_)" d="M196.422,166.537c2.68-2.974,3.72-6.707,2.425-9.018c0.002,0.001-0.208-0.28-0.262-0.35
			l-2.323-1.164l-0.013,0.024c-2.522-0.967-5.948,1.184-7.794,4.963c-0.406,0.831-0.702,1.674-0.893,2.497
			c0.727-1.046,3.387-0.491,5.958,1.246c1.036,0.699,1.896,1.483,2.509,2.24l0.381-0.424
			C196.415,166.545,196.418,166.542,196.422,166.537z"/>
	</g>
	<g>
		<g>
			<g>
				
					<linearGradient id="SVGID_11_" gradientUnits="userSpaceOnUse" x1="-43.4343" y1="298.4277" x2="-43.1975" y2="298.4194" gradientTransform="matrix(18.8076 -20.1518 20.1518 18.8076 -5010.6357 -6310.0605)">
					<stop  offset="0" style="stop-color:#F8C6A6"/>
					<stop  offset="0.0039" style="stop-color:#F7C099"/>
					<stop  offset="0.0103" style="stop-color:#F6B889"/>
					<stop  offset="0.0183" style="stop-color:#F5B27F"/>
					<stop  offset="0.0295" style="stop-color:#F5AF78"/>
					<stop  offset="0.0606" style="stop-color:#F5AE77"/>
					<stop  offset="0.4424" style="stop-color:#E86019"/>
					<stop  offset="1" style="stop-color:#E86019"/>
				</linearGradient>
				<path fill="url(#SVGID_11_)" d="M187.579,172.158c-1.551-1.742-4.22-1.898-5.963-0.347c-1.744,1.552-1.898,4.222-0.348,5.965
					c0.119,0.133,6.025,4.8,8.124,6.457c0.455,0.359,5.271-4.463,5.271-4.463S187.723,172.32,187.579,172.158z"/>
				<path fill="#B2421B" d="M194.932,181.21c0,0-8.607-9.201-8.75-9.362c-0.444-0.498-0.982-0.863-1.561-1.098
					c1.096,0.051,2.171,0.525,2.958,1.409c0.145,0.162,7.085,7.612,7.085,7.612L194.932,181.21z"/>
				<path fill="#B2421B" d="M193.511,178.684c0.968,0.526,0.892,2.263-0.174,3.881c-1.066,1.616-2.718,2.503-3.688,1.976
					c-0.97-0.525-0.891-2.263,0.175-3.88C190.891,179.042,192.542,178.157,193.511,178.684z"/>
				<path fill="#3C3C3B" d="M193.225,179.807c0.637,0.375,3.595,1.99,2.843,3.049c-0.335,0.471-0.41,2.111-1.49,2.027
					c-1.338-0.105-3.723-1.037-4.076-1.246c-0.637-0.373-0.543-1.536,0.208-2.594C191.462,179.986,192.589,179.432,193.225,179.807z
					"/>
			</g>
			
				<linearGradient id="SVGID_12_" gradientUnits="userSpaceOnUse" x1="-5.4407" y1="310.001" x2="-5.1804" y2="310.001" gradientTransform="matrix(32.7305 0 0 32.7305 370.9871 -9965.8027)">
				<stop  offset="0" style="stop-color:#F09B7A"/>
				<stop  offset="0.2902" style="stop-color:#F09B7A"/>
				<stop  offset="0.3683" style="stop-color:#EE8C60"/>
				<stop  offset="0.4805" style="stop-color:#EB7941"/>
				<stop  offset="0.5852" style="stop-color:#E96B2B"/>
				<stop  offset="0.6787" style="stop-color:#E8631E"/>
				<stop  offset="0.7513" style="stop-color:#E86019"/>
				<stop  offset="1" style="stop-color:#E86019"/>
			</linearGradient>
			<polygon fill="url(#SVGID_12_)" points="192.899,180.642 200.598,175.982 201.411,183.325 192.97,185.38 			"/>
		</g>
		<polygon fill="#B2421B" points="205.342,178.837 200.598,175.982 201.411,183.325 192.97,185.38 193.967,186.075 201.803,184.386 
			204.731,184.241 205.789,183.575 		"/>
	</g>
</g>
<g id="grid" display="none">
	<polygon display="inline" fill="#009FE3" points="416.399,239.344 383.581,239.344 392.465,246.318 383.652,253.236 
		416.399,253.236 416.399,261.645 362.233,261.643 362.233,260.137 379.566,246.316 362.233,232.451 362.233,230.943 
		416.399,230.934 	"/>
	<polygon display="inline" fill="#009FE3" points="217.316,54.166 217.316,21.349 210.341,30.232 203.424,21.419 203.424,54.166 
		195.015,54.166 195.017,0 196.523,0 210.344,17.333 224.209,0 225.716,0 225.726,54.166 	"/>
	<polygon display="inline" fill="#009FE3" points="217.316,362.25 217.316,329.432 210.341,338.316 203.424,329.501 203.424,362.25 
		195.015,362.25 195.017,308.083 196.523,308.083 210.344,325.416 224.209,308.083 225.716,308.083 225.726,362.25 	"/>
	<polygon display="inline" fill="#009FE3" points="54.166,241.622 21.35,241.622 30.232,248.596 21.42,255.514 54.166,255.514 
		54.166,263.922 0,263.92 0,262.415 17.334,248.593 0,234.729 0,233.221 54.166,233.211 	"/>
	
		<rect x="54.166" y="54.166" display="inline" fill="none" stroke="#009FE3" stroke-width="0.997" stroke-miterlimit="10" width="308.066" height="253.917"/>
</g>
</svg>
